<svg xmlns="http://www.w3.org/2000/svg" viewBox="0 0 2228.833 2073.333">
  <path fill="#5059c9" d="M1554.637 777.5h575.713c54.391 0 98.483 44.092 98.483 98.483v524.398c0 199.901-162.051 361.952-361.952 361.952h0-1.711c-199.901.028-361.975-162-362.004-361.901v-.052-571.409c.001-28.427 23.045-51.471 51.471-51.471z"/>
  <circle cx="1943.75" cy="440.583" r="233.25" fill="#5059c9"/>
  <circle cx="1218.083" cy="336.917" r="336.917" fill="#7b83eb"/>
  <path fill="#7b83eb" d="M1667.323 777.5v571.433c0 199.887-162.08 361.967-361.967 361.967h0c0-398.784 0-1009.356-.002-1443.597 0-199.439.16-394.954.27-558.071l170.587 69.547c153.25 62.497 254.36 210.638 254.362 373.318h0z"/>
  <path fill="#fff" d="M1244 777.5h-668.976c-19.213 0-35.107 15.894-35.107 35.107v687.97c0 19.213 15.894 35.107 35.107 35.107h663.062c33.9231 0 61.568-27.557 61.568-61.48v0-661.197c0-19.213-15.894-35.107-35.107-35.107h-20.547z"/>
  <path fill="#5059c9" d="M1192.667 777.5h-617.643c-19.213 0-35.107 15.894-35.107 35.107v687.97c0 19.213 15.894 35.107 35.107 35.107h611.729c33.991 0 61.568-27.577 61.568-61.568v0-661.109c0-19.213-15.894-35.107-35.107-35.107h-20.547z"/>
  <path d="M1192.667 777.5h-203.66v758.781h198.753c33.991 0 61.568-27.577 61.568-61.568v0-661.109c0-19.213-15.894-35.107-35.107-35.107h-21.554z" opacity=".1"/>
  <path d="M1139 777.5h-150.012v758.781h144.097c33.991 0 61.568-27.577 61.568-61.568v0-661.109c0-19.213-15.894-35.107-35.107-35.107h-20.546z" opacity=".2"/>
  <path d="M1244 777.5h-668.976c-19.213 0-35.107 15.894-35.107 35.107v687.97c0 19.213 15.894 35.107 35.107 35.107h663.062c33.9231 0 61.568-27.557 61.568-61.48v0-661.197c0-19.213-15.894-35.107-35.107-35.107h-20.547z" opacity=".2"/>
  <path d="M1192.667 777.5h-617.643c-19.213 0-35.107 15.894-35.107 35.107v687.97c0 19.213 15.894 35.107 35.107 35.107h611.729c33.991 0 61.568-27.577 61.568-61.568v0-661.109c0-19.213-15.894-35.107-35.107-35.107h-20.547z" opacity=".2"/>
  <path fill="#fff" d="M1139 777.5h-564.976c-19.213 0-35.107 15.894-35.107 35.107v687.97c0 19.213 15.894 35.107 35.107 35.107h559.062c33.991 0 61.568-27.577 61.568-61.568v0-661.109c0-19.213-15.894-35.107-35.107-35.107h-20.547z"/>
  <path fill="#5059c9" d="M881.334 777.5h-257.657c-19.213 0-35.107 15.894-35.107 35.107v687.97c0 19.213 15.894 35.107 35.107 35.107h257.657c19.213 0 35.107-15.894 35.107-35.107v-687.97c0-19.213-15.894-35.107-35.107-35.107z"/>
  <circle cx="752.5" cy="999.833" r="164.5" fill="#fff"/>
  <path fill="#fff" d="M720.367 1188.66h64.267c33.581 0 60.825 27.244 60.825 60.825v136.493h-185.917v-136.493c0-33.581 27.244-60.825 60.825-60.825z"/>
</svg>
